<?xml version="1.0" encoding="utf-8"?>
<svg viewBox="229.35 134.447 115.114 115.114" xmlns="http://www.w3.org/2000/svg">
  <g transform="matrix(1, 0, 0, 1, 107.9767, 55.138401)">
    <path fill="#231F20" d="M 183.127 107.016 C 183.127 107.016 179.209 101.933 174.043 101.933 C 168.877 101.933 161.293 112.1 161.293 119.35 C 161.293 123.683 167.877 126.35 167.877 126.35 C 167.877 126.35 157.294 135.017 157.294 150.35 C 157.294 165.683 171.294 174.433 183.544 174.433 C 188.211 174.433 204.961 165.6 204.961 165.6 L 204.961 164.85 C 204.961 164.85 198.295 164.85 189.378 164.85 C 180.461 164.85 162.128 157.267 162.128 145.1 C 162.128 128.621 182.794 124.35 182.794 124.35 C 182.794 124.35 184.128 123.016 186.378 119.433 C 188.628 115.85 189.461 113.6 189.461 113.6 C 189.461 113.6 185.461 114.766 181.461 116.683 C 177.461 118.6 175.295 120.933 173.128 120.933 C 170.961 120.933 164.711 117.351 164.711 115.267 C 164.711 113.183 168.628 109.017 174.378 107.767 C 180.128 106.517 183.127 107.016 183.127 107.016 Z"/>
  </g>
</svg>